<svg width="32" height="32" viewBox="0 0 30 30" fill="none" xmlns="http://www.w3.org/2000/svg">
  <!-- Синий треугольник (сзади) -->
  <path d="M3.68844 28.4581C1.54195 29.698 0 28.6648 0 26.827C0 24.8705 0 19.0003 0 19.0003C0 19.0003 0 13.1301 0 11.1737C0 9.33591 1.54099 8.30269 3.68844 9.54255C7.03156 11.4731 17.06 17.2668 17.06 17.2668C18.3934 18.037 18.3934 19.9628 17.06 20.7329C17.06 20.7338 7.03156 26.5275 3.68844 28.4581Z" fill="#00C1FF"/>
  <!-- Зелёный треугольник (спереди) -->
  <path d="M14.7265 28.4574C12.58 29.6972 11.038 28.664 11.038 26.8262C11.038 24.8698 11.038 18.9996 11.038 18.9996C11.038 18.9996 11.038 13.1294 11.038 11.173C11.038 9.33518 12.579 8.30196 14.7265 9.54182C17.9959 11.4303 27.8043 17.0968 27.8043 17.0968C29.2688 17.9425 29.2688 20.0567 27.8043 20.9024C27.8034 20.9024 17.9959 26.5689 14.7265 28.4574Z" fill="#BCEC30"/>
</svg>
